<svg width="25" height="24" viewBox="0 0 25 24" fill="none" xmlns="http://www.w3.org/2000/svg">
<path fill-rule="evenodd" clip-rule="evenodd" d="M14 3C14 2.60218 13.842 2.22064 13.5607 1.93934C13.2794 1.65804 12.8978 1.5 12.5 1.5C12.1022 1.5 11.7206 1.65804 11.4393 1.93934C11.158 2.22064 11 2.60218 11 3V13C11 13.3978 11.158 13.7794 11.4393 14.0607C11.7206 14.342 12.1022 14.5 12.5 14.5C12.8978 14.5 13.2794 14.342 13.5607 14.0607C13.842 13.7794 14 13.3978 14 13V3ZM8.354 5.75C8.51815 5.64094 8.65922 5.50061 8.76914 5.33703C8.87906 5.17345 8.95568 4.98982 8.99464 4.79663C9.03359 4.60344 9.03411 4.40447 8.99617 4.21107C8.95823 4.01768 8.88257 3.83365 8.7735 3.6695C8.66444 3.50535 8.52411 3.36428 8.36053 3.25436C8.19695 3.14444 8.01333 3.06782 7.82013 3.02886C7.62694 2.98991 7.42797 2.98939 7.23457 3.02733C7.04118 3.06527 6.85715 3.14094 6.693 3.25C5.24899 4.20748 4.06462 5.50773 3.24569 7.03459C2.42677 8.56145 1.9988 10.2674 2 12C2 17.799 6.701 22.5 12.5 22.5C18.299 22.5 23 17.799 23 12C23 8.346 21.133 5.13 18.307 3.25C17.9755 3.02987 17.5701 2.95045 17.18 3.02922C16.7899 3.10798 16.4471 3.33848 16.227 3.67C16.0069 4.00152 15.9275 4.40691 16.0062 4.79698C16.085 5.18706 16.3155 5.52987 16.647 5.75C17.9896 6.64064 19.0097 7.93996 19.5563 9.45556C20.1028 10.9712 20.1468 12.6225 19.6817 14.165C19.2165 15.7076 18.267 17.0594 16.9738 18.0202C15.6805 18.981 14.1122 19.4999 12.501 19.4999C10.8899 19.4999 9.32153 18.981 8.02825 18.0202C6.73496 17.0594 5.78546 15.7076 5.32034 14.165C4.85521 12.6225 4.89919 10.9712 5.44575 9.45556C5.99231 7.93996 7.01141 6.64064 8.354 5.75Z" fill="white"/>
</svg>
