<svg width="25" height="25" viewBox="0 0 25 25" fill="none" xmlns="http://www.w3.org/2000/svg">
<path d="M12.5 21.25C10.5772 21.25 8.73311 20.4862 7.37348 19.1265C6.01384 17.7669 5.25 15.9228 5.25 14C5.25 12.0772 6.01384 10.2331 7.37348 8.87348C8.73311 7.51384 10.5772 6.75 12.5 6.75H15C15.1989 6.75 15.3897 6.82902 15.5303 6.96967C15.671 7.11032 15.75 7.30109 15.75 7.5C15.75 7.69891 15.671 7.88968 15.5303 8.03033C15.3897 8.17098 15.1989 8.25 15 8.25H12.5C11.3628 8.25 10.2511 8.58723 9.30547 9.21905C8.35989 9.85087 7.6229 10.7489 7.18769 11.7996C6.75249 12.8502 6.63862 14.0064 6.86048 15.1218C7.08235 16.2372 7.62998 17.2617 8.43414 18.0659C9.23829 18.87 10.2628 19.4177 11.3782 19.6395C12.4936 19.8614 13.6498 19.7475 14.7004 19.3123C15.7511 18.8771 16.6491 18.1401 17.281 17.1945C17.9128 16.2489 18.25 15.1372 18.25 14C18.25 13.8011 18.329 13.6103 18.4697 13.4697C18.6103 13.329 18.8011 13.25 19 13.25C19.1989 13.25 19.3897 13.329 19.5303 13.4697C19.671 13.6103 19.75 13.8011 19.75 14C19.7474 15.922 18.9827 17.7645 17.6236 19.1236C16.2645 20.4827 14.422 21.2474 12.5 21.25Z" fill="black"/>
<path d="M12.5 11.25C12.4015 11.2505 12.3039 11.2312 12.2128 11.1935C12.1218 11.1557 12.0393 11.1001 11.97 11.03C11.8296 10.8894 11.7507 10.6988 11.7507 10.5C11.7507 10.3013 11.8296 10.1106 11.97 9.97L14.44 7.5L11.97 5.03C11.8963 4.96134 11.8372 4.87854 11.7963 4.78654C11.7553 4.69454 11.7332 4.59523 11.7314 4.49452C11.7297 4.39382 11.7482 4.29379 11.7859 4.2004C11.8236 4.10702 11.8798 4.02218 11.951 3.95096C12.0222 3.87974 12.107 3.8236 12.2004 3.78588C12.2938 3.74816 12.3939 3.72963 12.4946 3.73141C12.5953 3.73319 12.6946 3.75523 12.7866 3.79622C12.8786 3.83721 12.9614 3.89631 13.03 3.97L16.03 6.97C16.1705 7.11063 16.2494 7.30125 16.2494 7.5C16.2494 7.69875 16.1705 7.88938 16.03 8.03L13.03 11.03C12.9608 11.1001 12.8782 11.1557 12.7872 11.1935C12.6962 11.2312 12.5986 11.2505 12.5 11.25Z" fill="black"/>
</svg>
