<svg width="24" height="25" viewBox="0 0 24 25" fill="none" xmlns="http://www.w3.org/2000/svg">
<path d="M21.51 15.09L20.26 13.77C20.4192 12.8079 20.3989 11.8247 20.2 10.87L21.42 9.55C21.5147 9.44449 21.578 9.31459 21.6028 9.17498C21.6275 9.03538 21.6127 8.89164 21.56 8.76C21.0531 7.51006 20.3056 6.37185 19.36 5.41C19.2675 5.31752 19.1522 5.25122 19.0257 5.21784C18.8992 5.18447 18.7661 5.18521 18.64 5.22L16.8 5.69C16.2334 5.28282 15.6188 4.94696 14.97 4.69L14.52 2.97C14.4866 2.8305 14.4128 2.70393 14.3079 2.60612C14.203 2.5083 14.0715 2.44357 13.93 2.42C13.3069 2.30356 12.674 2.24663 12.04 2.25C11.2468 2.25376 10.4572 2.35792 9.69004 2.56C9.56204 2.59218 9.44515 2.65846 9.35182 2.75179C9.2585 2.84512 9.19222 2.962 9.16004 3.09L8.68004 4.86C8.14333 5.09807 7.63374 5.3931 7.16004 5.74L5.34004 5.29C5.21226 5.2566 5.0778 5.25849 4.95101 5.29547C4.82421 5.33245 4.70983 5.40314 4.62004 5.5C3.62581 6.53287 2.86529 7.76744 2.39004 9.12C2.34395 9.25074 2.3345 9.39159 2.3627 9.52731C2.3909 9.66303 2.45568 9.78845 2.55004 9.89L3.81004 11.2C3.74604 11.6207 3.71271 12.044 3.71004 12.47C3.71004 12.77 3.71004 13.07 3.76004 13.37L2.45004 14.83C2.36188 14.9271 2.30071 15.0456 2.27264 15.1737C2.24457 15.3017 2.25056 15.435 2.29004 15.56C2.70098 16.8822 3.38202 18.1047 4.29004 19.15C4.38136 19.2574 4.5011 19.3369 4.63552 19.3793C4.76994 19.4218 4.91361 19.4255 5.05004 19.39L6.77004 18.95C7.37258 19.4561 8.04651 19.8706 8.77004 20.18L9.27004 21.97C9.30856 22.0998 9.38061 22.2171 9.47892 22.3101C9.57724 22.4032 9.69835 22.4687 9.83004 22.5C10.551 22.663 11.289 22.747 12.03 22.75C12.6207 22.7433 13.2074 22.6867 13.79 22.58C13.9281 22.5556 14.0565 22.493 14.1608 22.3994C14.2651 22.3057 14.3411 22.1847 14.38 22.05L14.85 20.36C15.7135 20.0513 16.5183 19.5982 17.23 19.02L18.99 19.42C19.122 19.4507 19.2599 19.4445 19.3886 19.4022C19.5174 19.3599 19.632 19.283 19.72 19.18C20.597 18.2069 21.2763 17.0725 21.72 15.84C21.7559 15.7077 21.7554 15.5681 21.7184 15.4361C21.6814 15.304 21.6094 15.1844 21.51 15.09ZM12.12 16.36C11.6147 16.3695 11.1125 16.2783 10.6427 16.0917C10.1729 15.9052 9.74495 15.6271 9.38372 15.2735C9.0225 14.92 8.73523 14.4981 8.53865 14.0324C8.34208 13.5667 8.24012 13.0666 8.23873 12.5612C8.23734 12.0557 8.33653 11.555 8.53054 11.0883C8.72454 10.6216 9.00948 10.1981 9.36876 9.84255C9.72803 9.48701 10.1545 9.20652 10.6232 9.0174C11.0919 8.82828 11.5936 8.73433 12.099 8.741C13.1095 8.73835 14.0797 9.13722 14.796 9.84986C15.5124 10.5625 15.9164 11.5305 15.919 12.541C15.9217 13.5515 15.5228 14.5216 14.8102 15.238C14.0975 15.9544 13.1295 16.3584 12.119 16.361" fill="white"/>
</svg>
