<svg width="25" height="24" viewBox="0 0 25 24" fill="none" xmlns="http://www.w3.org/2000/svg">
<path d="M12.9275 2.81823C12.8747 2.75656 12.8092 2.70705 12.7354 2.6731C12.6617 2.63916 12.5814 2.62158 12.5002 2.62158C12.419 2.62158 12.3388 2.63916 12.2651 2.6731C12.1913 2.70705 12.1258 2.75656 12.073 2.81823C10.5889 4.55401 5.75 10.5549 5.75 15.0001C5.75 19.1424 8.35812 21.7501 12.5 21.7501C16.6419 21.7501 19.25 19.1424 19.25 15.0001C19.25 10.5549 14.4111 4.55401 12.9275 2.81823ZM13.25 19.3126C13.1599 19.3128 13.0711 19.2914 12.991 19.2501C12.9109 19.2088 12.8419 19.1489 12.7898 19.0754C12.7377 19.0019 12.7041 18.9169 12.6916 18.8277C12.6792 18.7385 12.6884 18.6475 12.7184 18.5626C12.7568 18.4518 12.8291 18.3559 12.9252 18.2885C13.0212 18.2212 13.136 18.1859 13.2533 18.1876C13.9978 18.186 14.7114 17.8895 15.2379 17.363C15.7644 16.8365 16.0609 16.1229 16.0625 15.3784C16.0608 15.2611 16.0961 15.1463 16.1634 15.0503C16.2308 14.9542 16.3267 14.8819 16.4375 14.8435C16.5224 14.8135 16.6134 14.8043 16.7026 14.8167C16.7918 14.8292 16.8768 14.8628 16.9503 14.9149C17.0238 14.967 17.0837 15.036 17.125 15.1161C17.1663 15.1962 17.1877 15.285 17.1875 15.3751C17.1864 16.419 16.7712 17.4199 16.033 18.1581C15.2948 18.8963 14.2939 19.3115 13.25 19.3126Z" fill="white"/>
</svg>
