<svg width="25" height="24" viewBox="0 0 25 24" fill="none" xmlns="http://www.w3.org/2000/svg">
<path fill-rule="evenodd" clip-rule="evenodd" d="M18.3828 2C18.664 1.99998 18.9421 2.05927 19.1988 2.17399C19.4556 2.28871 19.6853 2.45629 19.8729 2.66578C20.0605 2.87528 20.2018 3.12198 20.2876 3.38979C20.3734 3.6576 20.4017 3.94049 20.3708 4.22L18.5928 20.22C18.5387 20.7094 18.3059 21.1616 17.9391 21.49C17.5723 21.8184 17.0972 22 16.6048 22H8.39481C7.90245 22 7.42737 21.8184 7.06056 21.49C6.69375 21.1616 6.46097 20.7094 6.40681 20.22L4.62981 4.22C4.59889 3.94057 4.62722 3.65777 4.71296 3.39003C4.7987 3.12229 4.93993 2.87563 5.12742 2.66616C5.31492 2.45668 5.54447 2.28908 5.8011 2.17429C6.05773 2.05951 6.33568 2.00012 6.61681 2H18.3828ZM13.4998 15C13.2346 15 12.9802 15.1054 12.7927 15.2929C12.6052 15.4804 12.4998 15.7348 12.4998 16C12.4998 16.2652 12.6052 16.5196 12.7927 16.7071C12.9802 16.8946 13.2346 17 13.4998 17C13.765 17 14.0194 16.8946 14.2069 16.7071C14.3945 16.5196 14.4998 16.2652 14.4998 16C14.4998 15.7348 14.3945 15.4804 14.2069 15.2929C14.0194 15.1054 13.765 15 13.4998 15ZM10.4998 12C10.2346 12 9.98024 12.1054 9.79271 12.2929C9.60517 12.4804 9.49981 12.7348 9.49981 13C9.49981 13.2652 9.60517 13.5196 9.79271 13.7071C9.98024 13.8946 10.2346 14 10.4998 14C10.765 14 11.0194 13.8946 11.2069 13.7071C11.3945 13.5196 11.4998 13.2652 11.4998 13C11.4998 12.7348 11.3945 12.4804 11.2069 12.2929C11.0194 12.1054 10.765 12 10.4998 12ZM18.3828 4H6.61681L7.04181 7.823L7.22881 7.79C7.48881 7.746 7.78981 7.71 8.12881 7.69C9.25681 7.623 10.7918 7.747 12.5588 8.443L12.8938 8.581C14.3858 9.221 15.6588 9.353 16.5748 9.322L17.7988 9.254L18.3828 4Z" fill="white"/>
</svg>
