<svg width="25" height="24" viewBox="0 0 25 24" fill="none" xmlns="http://www.w3.org/2000/svg">
<path d="M13.4998 3C13.4998 2.73478 13.3944 2.48043 13.2069 2.29289C13.0194 2.10536 12.765 2 12.4998 2C12.2346 2 11.9802 2.10536 11.7927 2.29289C11.6052 2.48043 11.4998 2.73478 11.4998 3V3.962L10.8458 3.616C10.7297 3.55461 10.6027 3.51668 10.4719 3.50439C10.3412 3.49209 10.2093 3.50567 10.0838 3.54435C9.9583 3.58302 9.84164 3.64604 9.7405 3.72979C9.63936 3.81355 9.5557 3.91641 9.49431 4.0325C9.43291 4.14859 9.39499 4.27563 9.38269 4.40638C9.3704 4.53712 9.38397 4.66901 9.42265 4.79451C9.46133 4.92001 9.52434 5.03666 9.6081 5.1378C9.69186 5.23895 9.79472 5.32261 9.91081 5.384L11.4998 6.224V8.126C10.7959 8.30818 10.1549 8.67879 9.6458 9.198L7.99781 8.246L8.06481 6.45C8.07462 6.18492 7.97872 5.92679 7.79822 5.73241C7.61772 5.53803 7.36739 5.42331 7.1023 5.4135C6.83722 5.40369 6.5791 5.49958 6.38471 5.68008C6.19033 5.86059 6.07562 6.11092 6.0658 6.376L6.0388 7.115L5.2058 6.635C5.09197 6.56457 4.96515 6.51772 4.83287 6.49721C4.70059 6.47671 4.56554 6.48297 4.43572 6.51563C4.30591 6.54829 4.18397 6.60667 4.07714 6.68733C3.9703 6.76799 3.88075 6.86928 3.81379 6.98518C3.74683 7.10109 3.70382 7.22927 3.68732 7.36211C3.67081 7.49495 3.68115 7.62975 3.7177 7.75852C3.75426 7.88729 3.8163 8.00741 3.90014 8.11176C3.98399 8.21611 4.08793 8.30257 4.2058 8.366L5.0388 8.847L4.4118 9.241C4.19311 9.38473 4.03948 9.60846 3.98387 9.86417C3.92826 10.1199 3.9751 10.3872 4.11435 10.6088C4.2536 10.8304 4.47416 10.9885 4.72869 11.0493C4.98322 11.1101 5.25145 11.0687 5.4758 10.934L6.9978 9.978L8.64481 10.929C8.45008 11.6297 8.45008 12.3703 8.64481 13.071L6.9978 14.021L5.4758 13.066C5.25145 12.9313 4.98322 12.8899 4.72869 12.9507C4.47416 13.0115 4.2536 13.1696 4.11435 13.3912C3.9751 13.6128 3.92826 13.8801 3.98387 14.1358C4.03948 14.3915 4.19311 14.6153 4.4118 14.759L5.0388 15.153L4.2058 15.633C4.09201 15.6987 3.99227 15.7861 3.91227 15.8903C3.83227 15.9945 3.77358 16.1135 3.73954 16.2403C3.70551 16.3672 3.6968 16.4996 3.71392 16.6298C3.73104 16.7601 3.77364 16.8857 3.8393 16.9995C3.90497 17.1133 3.9924 17.213 4.0966 17.293C4.20081 17.373 4.31976 17.4317 4.44665 17.4658C4.57354 17.4998 4.70589 17.5085 4.83615 17.4914C4.96641 17.4743 5.09201 17.4317 5.2058 17.366L6.0378 16.885L6.0658 17.625C6.07073 17.7563 6.10146 17.8853 6.15624 18.0046C6.21102 18.124 6.28877 18.2314 6.38507 18.3208C6.48136 18.4101 6.59431 18.4796 6.71746 18.5253C6.84061 18.5709 6.97155 18.5919 7.1028 18.587C7.23406 18.5821 7.36306 18.5513 7.48244 18.4966C7.60182 18.4418 7.70924 18.364 7.79857 18.2677C7.88791 18.1714 7.95739 18.0585 8.00307 17.9353C8.04875 17.8122 8.06973 17.6813 8.06481 17.55L7.99781 15.754L9.6458 14.802C10.1549 15.3212 10.7959 15.6918 11.4998 15.874V17.776L9.91081 18.616C9.67635 18.74 9.50076 18.952 9.42265 19.2055C9.34454 19.4589 9.37032 19.733 9.49431 19.9675C9.61829 20.202 9.83034 20.3775 10.0838 20.4557C10.3373 20.5338 10.6114 20.508 10.8458 20.384L11.4998 20.038V21C11.4998 21.2652 11.6052 21.5196 11.7927 21.7071C11.9802 21.8946 12.2346 22 12.4998 22C12.765 22 13.0194 21.8946 13.2069 21.7071C13.3944 21.5196 13.4998 21.2652 13.4998 21V20.038L14.1538 20.384C14.3883 20.508 14.6624 20.5338 14.9158 20.4557C15.1693 20.3775 15.3813 20.202 15.5053 19.9675C15.6293 19.733 15.6551 19.4589 15.577 19.2055C15.4989 18.952 15.3233 18.74 15.0888 18.616L13.4998 17.776V15.874C14.2036 15.6921 14.8446 15.3218 15.3538 14.803L17.0018 15.754L16.9348 17.55C16.9299 17.6813 16.9509 17.8122 16.9965 17.9353C17.0422 18.0585 17.1117 18.1714 17.201 18.2677C17.2904 18.364 17.3978 18.4418 17.5172 18.4966C17.6365 18.5513 17.7655 18.5821 17.8968 18.587C18.0281 18.5919 18.159 18.5709 18.2822 18.5253C18.4053 18.4796 18.5182 18.4101 18.6145 18.3208C18.7108 18.2314 18.7886 18.124 18.8434 18.0046C18.8982 17.8853 18.9289 17.7563 18.9338 17.625L18.9608 16.885L19.7938 17.366C19.9076 17.4327 20.0334 17.4762 20.1641 17.4941C20.2947 17.512 20.4277 17.5038 20.5552 17.4701C20.6826 17.4364 20.8022 17.3778 20.907 17.2977C21.0117 17.2176 21.0996 17.1175 21.1656 17.0033C21.2315 16.8891 21.2742 16.763 21.2912 16.6322C21.3082 16.5014 21.2992 16.3686 21.2646 16.2413C21.2301 16.114 21.1707 15.9949 21.0899 15.8906C21.0091 15.7864 20.9085 15.6992 20.7938 15.634L19.9618 15.154L20.5878 14.76C20.8124 14.6189 20.9718 14.3944 21.0309 14.1357C21.09 13.8771 21.0439 13.6056 20.9028 13.381C20.7617 13.1564 20.5372 12.997 20.2785 12.9379C20.0199 12.8788 19.7484 12.9249 19.5238 13.066L18.0018 14.022L16.3548 13.072C16.5497 12.371 16.5497 11.63 16.3548 10.929L18.0018 9.978L19.5238 10.934C19.7484 11.0751 20.0199 11.1212 20.2785 11.0621C20.5372 11.003 20.7617 10.8436 20.9028 10.619C21.0439 10.3944 21.09 10.1229 21.0309 9.86426C20.9718 9.60565 20.8124 9.38109 20.5878 9.24L19.9608 8.847L20.7938 8.366C20.9085 8.30082 21.0091 8.2136 21.0899 8.10937C21.1707 8.00515 21.2301 7.88597 21.2646 7.75869C21.2992 7.63142 21.3082 7.49857 21.2912 7.36779C21.2742 7.23701 21.2315 7.11088 21.1656 6.99667C21.0996 6.88246 21.0117 6.78242 20.907 6.70231C20.8022 6.62221 20.6826 6.56361 20.5552 6.5299C20.4277 6.49619 20.2947 6.48804 20.1641 6.5059C20.0334 6.52377 19.9076 6.5673 19.7938 6.634L18.9608 7.114L18.9338 6.375C18.9289 6.24374 18.8982 6.11474 18.8434 5.99536C18.7886 5.87598 18.7108 5.76856 18.6145 5.67923C18.5182 5.5899 18.4053 5.52041 18.2822 5.47473C18.159 5.42905 18.0281 5.40808 17.8968 5.413C17.7655 5.41792 17.6365 5.44865 17.5172 5.50343C17.3978 5.55821 17.2904 5.63597 17.201 5.73226C17.1117 5.82856 17.0422 5.9415 16.9965 6.06465C16.9509 6.1878 16.9299 6.31874 16.9348 6.45L17.0018 8.246L15.3538 9.197C14.8446 8.67816 14.2036 8.30789 13.4998 8.126V6.224L15.0888 5.384C15.3233 5.26001 15.4989 5.04797 15.577 4.79451C15.6551 4.54105 15.6293 4.26695 15.5053 4.0325C15.3813 3.79805 15.1693 3.62245 14.9158 3.54435C14.6624 3.46624 14.3883 3.49201 14.1538 3.616L13.4998 3.962V3Z" fill="white"/>
</svg>
