<svg width="16" height="16" viewBox="0 0 16 16" fill="none" xmlns="http://www.w3.org/2000/svg">
<path d="M10.5 3.035C10.5 2.185 11.19 1.5 12.035 1.5C12.88 1.5 13.565 2.185 13.57 3.035V6.1475C13.9656 6.25359 14.3152 6.48724 14.5645 6.81223C14.8139 7.13722 14.949 7.53539 14.949 7.945C14.949 8.35461 14.8139 8.75278 14.5645 9.07777C14.3152 9.40276 13.9656 9.63641 13.57 9.7425V12.86C13.57 13.2671 13.4083 13.6575 13.1204 13.9454C12.8325 14.2333 12.4421 14.395 12.035 14.395C11.6279 14.395 11.2375 14.2333 10.9496 13.9454C10.6617 13.6575 10.5 13.2671 10.5 12.86V12.744L7.535 11.285C7.22893 11.1347 6.90426 11.0258 6.5695 10.961C6.32886 10.9167 6.08467 10.8946 5.84 10.895L5.838 10.89H5V13.899C5 14.234 4.73 14.504 4.395 14.504H3.108C2.773 14.504 2.503 14.234 2.503 13.899V10.89H1.863C1.386 10.89 1 10.515 1 10.055V5.84C1 5.375 1.385 5 1.8635 5H5.886C6.45794 4.99257 7.02125 4.85943 7.536 4.61L10.5 3.1515V3.035ZM3.503 10.89V13.504H4V10.89H3.503ZM9.775 4.6515L8.083 5.484L8.0795 5.486C7.5835 5.725 7.0495 5.885 6.5 5.957V9.8165L6.549 9.945C7.082 10.02 7.602 10.18 8.086 10.4175L9.775 11.2485V4.6515Z" fill="#FF543E"/>
</svg>
