<svg width="17" height="16" viewBox="0 0 17 16" fill="none" xmlns="http://www.w3.org/2000/svg">
<path d="M13.59 9.80496C13.8342 9.80496 14.0761 9.75685 14.3018 9.66338C14.5274 9.5699 14.7325 9.4329 14.9052 9.26018C15.0779 9.08746 15.2149 8.88242 15.3084 8.65675C15.4019 8.43109 15.45 8.18922 15.45 7.94496C15.45 7.7007 15.4019 7.45884 15.3084 7.23317C15.2149 7.0075 15.0779 6.80246 14.9052 6.62974C14.7325 6.45703 14.5274 6.32002 14.3018 6.22654C14.0761 6.13307 13.8342 6.08496 13.59 6.08496C13.0967 6.08496 12.6236 6.28092 12.2748 6.62974C11.9259 6.97856 11.73 7.45166 11.73 7.94496C11.73 8.43826 11.9259 8.91136 12.2748 9.26018C12.6236 9.609 13.0967 9.80496 13.59 9.80496Z" fill="#212121"/>
<path d="M6.00005 5.49992L6.34005 4.99992C6.96505 4.99992 7.58505 4.85492 8.14505 4.58492L11.2751 3.04492V12.8549L8.14505 11.3149C7.58333 11.039 6.96589 10.8953 6.34005 10.8949L6.00005 9.99992V5.49992ZM3.60805 14.5039H4.89505C5.23005 14.5039 5.50005 14.2339 5.50005 13.8989V9.94492H3.00305V13.8989C3.00305 14.2339 3.27305 14.5039 3.60805 14.5039Z" fill="#D3D3D3"/>
<path d="M12.535 1.5C12.1279 1.5 11.7375 1.66172 11.4496 1.94959C11.1617 2.23746 11 2.62789 11 3.035V12.86C11 13.2671 11.1617 13.6575 11.4496 13.9454C11.7375 14.2333 12.1279 14.395 12.535 14.395C12.9421 14.395 13.3325 14.2333 13.6204 13.9454C13.9083 13.6575 14.07 13.2671 14.07 12.86V3.035C14.0691 2.62818 13.9071 2.23828 13.6194 1.95061C13.3317 1.66294 12.9418 1.50092 12.535 1.5Z" fill="#F8312F"/>
<path d="M2.3635 5H6.5V10.89H2.3635C1.885 10.89 1.5 10.515 1.5 10.055V5.84C1.5 5.375 1.885 5 2.3635 5Z" fill="#CA0B4A"/>
</svg>
