<svg width="21" height="21" viewBox="0 0 21 21" fill="none" xmlns="http://www.w3.org/2000/svg">
<path fill-rule="evenodd" clip-rule="evenodd" d="M9.87496 2.31C5.61829 2.31 2.16663 5.7876 2.16663 10.0783C2.16663 14.369 5.61829 17.8466 9.87496 17.8466C11.7032 17.8505 13.4727 17.1957 14.8641 16.0003L17.765 18.9235C17.8222 18.9854 17.8912 19.0351 17.9678 19.0695C18.0445 19.1039 18.1273 19.1224 18.2112 19.1239C18.2951 19.1254 18.3785 19.1099 18.4563 19.0782C18.5341 19.0465 18.6048 18.9993 18.6642 18.9395C18.7235 18.8797 18.7703 18.8084 18.8017 18.73C18.8332 18.6515 18.8486 18.5675 18.8471 18.4829C18.8456 18.3983 18.8273 18.3149 18.7931 18.2376C18.759 18.1603 18.7097 18.0908 18.6483 18.0331L15.7483 15.1099C16.936 13.7071 17.5868 11.9225 17.5833 10.0783C17.5833 5.7876 14.1316 2.31 9.87496 2.31ZM3.41663 10.0783C3.41707 8.35205 4.09769 6.69664 5.30882 5.47614C6.51994 4.25564 8.16239 3.57 9.87496 3.57C10.7316 3.55612 11.5824 3.71421 12.3778 4.03506C13.1732 4.35591 13.8974 4.83309 14.508 5.43882C15.1187 6.04455 15.6036 6.76671 15.9347 7.56324C16.2657 8.35976 16.4362 9.21472 16.4362 10.0783C16.4362 10.9419 16.2657 11.7969 15.9347 12.5934C15.6036 13.3899 15.1187 14.1121 14.508 14.7178C13.8974 15.3235 13.1732 15.8007 12.3778 16.1216C11.5824 16.4424 10.7316 16.6005 9.87496 16.5866C8.16239 16.5866 6.51994 15.901 5.30882 14.6805C4.09769 13.46 3.41707 11.8046 3.41663 10.0783Z" fill="white"/>
</svg>
